<?xml version="1.0" encoding="utf-8"?>
<!-- Generator: Adobe Illustrator 24.0.2, SVG Export Plug-In . SVG Version: 6.00 Build 0)  -->
<svg version="1.1" id="Layer_1" xmlns="http://www.w3.org/2000/svg" xmlns:xlink="http://www.w3.org/1999/xlink" x="0px" y="0px"
	 viewBox="0 0 500 101.1" style="enable-background:new 0 0 500 101.1;" xml:space="preserve">
<style type="text/css">
	.st0{fill:#FFFFFF;}
</style>
<g>
	<path class="st0" d="M20.4,27.9l1.7,11.8h-7.2l1.6-11.8l-9.4,7.4l-3.6-6.4l11.1-4.4L3.5,20l3.7-6.3l9.4,7.5L14.9,9.3h7.2l-1.7,11.8
		l9.4-7.4l3.6,6.4l-11.3,4.4L33.4,29l-3.8,6.3L20.4,27.9z"/>
	<path class="st0" d="M58.2,17.2H40V9.4h44.6v7.8H66.4v54.8h-8.2V17.2z"/>
	<path class="st0" d="M133.4,66.4c-5.1,4-11.3,6.6-18,6.6C97.7,73,91,62.1,91,52.6c0-8.2,4.7-14.6,11.3-18.4
		c-2.2-3.2-3.3-6.4-3.3-10.6c0-8.3,6.5-15.1,16.7-15.1c8.6,0,13.7,4.4,16.4,9.4l-7.6,3.5c-1.5-3-4.3-5.7-8.7-5.7
		c-5,0-8.2,3.5-8.2,7.8c0,5.1,2.7,7.9,10.4,15.7L134,55.5c3.5-4.5,5.8-9.9,6.7-15h-10.9v-7.8h19v3.6c0,7.9-3.6,17.2-9.6,24.5
		l11.2,11.3h-11.3L133.4,66.4z M128.2,61.2l-17.1-17.2c-1.5-1.5-2.8-2.7-4-4.1c-5.1,2.9-7.9,6.9-7.9,12.5c0,6.3,5.2,13.1,16.1,13.1
		C120.1,65.6,124.5,63.9,128.2,61.2z"/>
	<path class="st0" d="M155.9,40.7c0-18.2,14.3-32.2,32.2-32.2c11.8,0,22.1,6.3,27.7,15.8l-7.3,4.5c-4-7.4-11.2-12.3-20.4-12.3
		c-13.5,0-23.8,10.8-23.8,24.2c0,13.2,10.2,24,23.7,24c10,0,17.3-5.4,21.2-13.2l7.5,3.9c-5.4,10.4-15.8,17.4-28.6,17.4
		C169.7,72.9,155.9,58.5,155.9,40.7z"/>
	<path class="st0" d="M243.4,47c0-15,11.3-26.2,25.6-26.2c7,0,14.4,3.4,18.4,9.4v-8.3h8.1v50.2h-8.1v-8.5c-4,6-11.5,9.5-18.4,9.5
		C254.9,73.1,243.4,61.9,243.4,47z M288,46.9c0-10.2-7.9-18.6-18.3-18.6c-10.1,0-18.1,8.3-18.1,18.6c0,10.4,8,18.6,18.1,18.6
		C280.1,65.5,288,57.3,288,46.9z"/>
	<path class="st0" d="M314.9,64.2v31h-8V21.9h8v8.5c4-6,11.4-9.5,18.4-9.5c14.2,0,25.4,11.2,25.4,26.2c0,14.9-11.4,26.1-25.4,26.1
		C325.9,73.1,318.7,70,314.9,64.2z M350.6,46.9c0-10.3-8-18.6-18-18.6c-10.6,0-18.4,8.4-18.4,18.6c0,10.4,7.8,18.6,18.4,18.6
		C342.6,65.5,350.6,57.3,350.6,46.9z"/>
	<path class="st0" d="M375.7,64.2v31h-8V21.9h8v8.5c4-6,11.4-9.5,18.4-9.5c14.2,0,25.4,11.2,25.4,26.2c0,14.9-11.4,26.1-25.4,26.1
		C386.8,73.1,379.6,70,375.7,64.2z M411.4,46.9c0-10.3-8-18.6-18-18.6c-10.6,0-18.4,8.4-18.4,18.6c0,10.4,7.8,18.6,18.4,18.6
		C403.4,65.5,411.4,57.3,411.4,46.9z"/>
	<path class="st0" d="M428.7,8.6h8.2v63.5h-8.2V8.6z"/>
	<path class="st0" d="M466.1,69.4l-21.6-47.5h8.9l16.9,38l15.7-38h8.8l-31.4,73.4h-8.6L466.1,69.4z"/>
</g>
</svg>
