<?xml version="1.0" encoding="utf-8"?>
<!-- Generator: Adobe Illustrator 24.0.2, SVG Export Plug-In . SVG Version: 6.00 Build 0)  -->
<svg version="1.1" id="Layer_1" xmlns="http://www.w3.org/2000/svg" xmlns:xlink="http://www.w3.org/1999/xlink" x="0px" y="0px"
	 viewBox="0 0 500 200" style="enable-background:new 0 0 500 200;" xml:space="preserve">
<style type="text/css">
	.st0{fill:#FFFFFF;}
	.st1{fill:#FFE400;}
	.st2{fill:#010101;}
</style>
<g>
	<g>
		<g>
			<g>
				<path class="st0" d="M100,5.1h6.9l18.5,50.1h-6.9l-4.3-11.5H92.6l-4.2,11.5h-7L100,5.1z M94.9,37.3h17l-8.5-23.1L94.9,37.3z"/>
				<path class="st0" d="M129.2,47.7l5.6-3.6c2.5,3.7,6.6,6.2,11.5,6.2c5.9,0,8.9-3.1,8.9-6.7c0-4.1-5.2-4.9-10.6-6.2
					c-6.6-1.6-13.5-3.7-13.5-11.6c0-6.1,5.7-11.7,14.8-11.7c6.4,0,12.1,2.5,15.3,6.7l-5.1,3.6c-2.5-3-5.8-4.7-10.2-4.7
					c-5.4,0-8.2,2.7-8.2,6c0,3.9,4.6,4.8,10.4,6.2c6.4,1.6,13.7,3.6,13.7,11.7c0,5.4-4.5,12.5-15.6,12.5
					C138.6,56,132.9,52.9,129.2,47.7z"/>
				<path class="st0" d="M187.5,4.4h6.6v50.8h-6.6V4.4z"/>
				<path class="st0" d="M202,35.1c0-11.8,9.3-20.9,20.8-20.9c11.6,0,20.9,9.1,20.9,20.9c0,11.7-9.3,20.9-20.9,20.9
					C211.3,56,202,46.8,202,35.1z M237.1,35.1c0-8.2-6.3-14.9-14.3-14.9c-8,0-14.2,6.7-14.2,14.9c0,8.2,6.2,14.8,14.2,14.8
					C230.8,49.9,237.1,43.3,237.1,35.1z"/>
				<path class="st0" d="M249.5,15h6.8l9.9,31.1L278.1,15h6l11.9,31.2L306.3,15h6.8l-13.7,40.1h-6.3L281,23.9L269,55.2h-6.4
					L249.5,15z"/>
				<path class="st0" d="M336.5,35.1c0-12,9.1-20.9,20.4-20.9c5.6,0,11.5,2.7,14.8,7.5V15h6.4v40.1h-6.4v-6.8
					c-3.2,4.8-9.2,7.6-14.8,7.6C345.7,56,336.5,47.1,336.5,35.1z M372.2,35.1c0-8.2-6.3-14.9-14.6-14.9c-8.1,0-14.5,6.7-14.5,14.9
					c0,8.3,6.4,14.9,14.5,14.9C365.8,49.9,372.2,43.4,372.2,35.1z"/>
				<path class="st0" d="M384.4,47.7L390,44c2.5,3.7,6.6,6.2,11.5,6.2c5.9,0,8.9-3.1,8.9-6.7c0-4.1-5.2-4.9-10.6-6.2
					c-6.6-1.6-13.5-3.7-13.5-11.6c0-6.1,5.7-11.7,14.8-11.7c6.4,0,12.1,2.5,15.3,6.7l-5.1,3.6c-2.5-3-5.8-4.7-10.2-4.7
					c-5.4,0-8.2,2.7-8.2,6c0,3.9,4.6,4.8,10.4,6.2c6.4,1.6,13.7,3.6,13.7,11.7c0,5.4-4.5,12.5-15.6,12.5
					C393.8,56,388.1,52.9,384.4,47.7z"/>
			</g>
		</g>
	</g>
	<g>
		<path class="st1" d="M476.9,196.6H23.1c-10,0-18.2-8.1-18.2-18.2V98.5c0-10,8.1-18.2,18.2-18.2h453.8c10,0,18.2,8.1,18.2,18.2
			v79.9C495.1,188.5,486.9,196.6,476.9,196.6z"/>
		<g>
			<path class="st2" d="M60.2,117.8H42.5V106h47.8v11.8H72.6v54.4H60.2V117.8z"/>
			<path class="st2" d="M96.2,105.1h12.2v39.6l22.6-25.6h14.7l-20.5,23l21.2,30.1h-13.7l-15.9-22.9l-8.4,9.3v13.5H96.2V105.1z"/>
			<path class="st2" d="M156.7,158.6c4.6,0,7.3,3,7.3,7.4c0,4.4-2.8,7.3-7.4,7.3c-4.5,0-7.3-3-7.3-7.3
				C149.2,161.6,152.1,158.6,156.7,158.6z"/>
			<path class="st2" d="M199.5,172.3v-54.7h-8.1V106h20.4v66.2H199.5z"/>
			<path class="st2" d="M221.3,152.5c0-6.8,3-12.1,8.2-15.5c-3.7-3.1-5.9-7.4-5.9-13c0-11.4,8.6-18.9,21.7-18.9
				c12.8,0,21.5,7.4,21.5,18.9c0,5.6-2.5,10-6.3,13.1c5,3.4,8,8.7,8,15.4c0,12.7-8.8,20.7-23.7,20.7
				C229.9,173.2,221.3,165.2,221.3,152.5z M256.7,152.5c0-5.4-4-9.8-11.6-9.8c-7.7,0-11.9,4.4-11.9,9.8c0,5.4,3.7,9.8,11.6,9.8
				C252.6,162.3,256.7,157.9,256.7,152.5z M255.5,124c0-4.6-3.7-8.4-10.2-8.4c-6.6,0-10.5,3.8-10.5,8.4c0,4.7,3.4,8.3,10.2,8.3
				C251.9,132.3,255.5,128.6,255.5,124z"/>
			<path class="st2" d="M276.7,164.4h10.8l-6.4,18.5h-7.6L276.7,164.4z"/>
			<path class="st2" d="M317.2,149.5c-1.3,0.4-2.5,0.5-3.8,0.5c-11.5,0-21.2-9.1-21.2-22.3c0-13.5,10.3-22.6,23.5-22.6
				c13.7,0,23.6,9.9,23.6,22.5c0,6.2-2,12.5-5.1,17.1l-17.1,27.5h-14.5L317.2,149.5z M327.3,127.7c0-6.4-5.1-11.7-11.4-11.7
				c-6.2,0-11.5,5.4-11.5,11.8c0,6.4,5.4,11.6,11.5,11.6C322.2,139.4,327.3,134.2,327.3,127.7z"/>
			<path class="st2" d="M368.2,149.5c-1.3,0.4-2.5,0.5-3.8,0.5c-11.5,0-21.2-9.1-21.2-22.3c0-13.5,10.3-22.6,23.5-22.6
				c13.7,0,23.6,9.9,23.6,22.5c0,6.2-2,12.5-5.1,17.1l-17.1,27.5h-14.5L368.2,149.5z M378.3,127.7c0-6.4-5.1-11.7-11.4-11.7
				c-6.2,0-11.5,5.4-11.5,11.8c0,6.4,5.4,11.6,11.5,11.6C373.2,139.4,378.3,134.2,378.3,127.7z"/>
			<path class="st2" d="M419.2,149.5c-1.3,0.4-2.5,0.5-3.8,0.5c-11.5,0-21.2-9.1-21.2-22.3c0-13.5,10.3-22.6,23.5-22.6
				c13.7,0,23.6,9.9,23.6,22.5c0,6.2-2,12.5-5.1,17.1l-17.1,27.5h-14.5L419.2,149.5z M429.3,127.7c0-6.4-5.1-11.7-11.4-11.7
				c-6.2,0-11.5,5.4-11.5,11.8c0,6.4,5.4,11.6,11.5,11.6C424.2,139.4,429.3,134.2,429.3,127.7z"/>
			<path class="st2" d="M455.9,116l1.2,6.1h-6.2l1.2-6l-4.7,4l-3-5.4l5.8-2l-5.8-2.1l3.2-5.3l4.6,4l-1.2-6h6.2l-1.3,6.1l4.8-4.1
				l3.1,5.4l-5.9,2l5.9,2l-3.2,5.3L455.9,116z"/>
		</g>
	</g>
</g>
</svg>
