<?xml version="1.0" encoding="utf-8"?>
<!-- Generator: Adobe Illustrator 24.0.2, SVG Export Plug-In . SVG Version: 6.00 Build 0)  -->
<svg version="1.1" id="Layer_1" xmlns="http://www.w3.org/2000/svg" xmlns:xlink="http://www.w3.org/1999/xlink" x="0px" y="0px"
	 viewBox="0 0 500 98.4" style="enable-background:new 0 0 500 98.4;" xml:space="preserve">
<style type="text/css">
	.st0{fill:#010101;}
	.st1{fill:none;stroke:#010101;stroke-width:1.9791;stroke-miterlimit:10;}
	.st2{fill:#FFFFFF;}
</style>
<g>
	<g>
		<g>
			<path class="st0" d="M282.4,12.4h-10.1V8H297v4.3H287v30.4h-4.6V12.4z"/>
			<path class="st0" d="M301.9,7.6h4.5V30l14.3-15.1h5.6l-11.2,11.8l11.5,16h-5.2l-9.5-13.3l-5.5,5.7v7.6h-4.5V7.6z"/>
			<path class="st0" d="M333,36.3c2.2,0,3.5,1.4,3.5,3.4c0,2-1.3,3.4-3.5,3.4c-2.1,0-3.4-1.4-3.4-3.4C329.6,37.7,331,36.3,333,36.3z
				"/>
			<path class="st0" d="M352.8,38.2c0-5.6,4.8-9.2,9.4-12.4c4-2.8,7.7-5.3,7.7-8.7c0-3.2-2.4-5.6-6.4-5.6c-3.4,0-5.7,2.1-7.2,5.1
				l-4-2.1c2-4.2,5.9-7.1,11.2-7.1c6.8,0,11.1,4.3,11.1,9.6c0,5.4-4.7,8.7-9.2,11.8c-4.1,2.8-8,5.5-8,9.3v0H375v4.4h-22.1V38.2z"/>
			<path class="st0" d="M395.7,12.5H379V8h21.5v4l-13.8,30.7h-4.9L395.7,12.5z"/>
			<path class="st0" d="M405.6,38.6h5l-4.1,9.7h-3.2L405.6,38.6z"/>
			<path class="st0" d="M428.3,30.9c-1,0.3-2.1,0.5-3.2,0.5c-6.4,0-11.5-5.1-11.5-11.9c0-6.9,5.4-12,12.3-12c7,0,12.3,5.3,12.3,11.9
				c0,3-1,6.1-2.6,8.4l-9.7,14.8h-5.5L428.3,30.9z M433.7,19.5c0-4.3-3.4-7.8-7.7-7.8c-4.2,0-7.7,3.6-7.7,7.8c0,4.3,3.5,7.7,7.7,7.7
				C430.3,27.3,433.7,23.8,433.7,19.5z"/>
			<path class="st0" d="M456.4,30.9c-1,0.3-2.1,0.5-3.2,0.5c-6.4,0-11.5-5.1-11.5-11.9c0-6.9,5.4-12,12.3-12c7,0,12.3,5.3,12.3,11.9
				c0,3-1,6.1-2.6,8.4l-9.7,14.8h-5.5L456.4,30.9z M461.8,19.5c0-4.3-3.4-7.8-7.7-7.8c-4.2,0-7.7,3.6-7.7,7.8c0,4.3,3.5,7.7,7.7,7.7
				C458.4,27.3,461.8,23.8,461.8,19.5z"/>
			<path class="st0" d="M484.5,30.9c-1,0.3-2.1,0.5-3.2,0.5c-6.4,0-11.5-5.1-11.5-11.9c0-6.9,5.4-12,12.3-12c7,0,12.3,5.3,12.3,11.9
				c0,3-1,6.1-2.6,8.4L482,42.7h-5.5L484.5,30.9z M489.8,19.5c0-4.3-3.4-7.8-7.7-7.8c-4.2,0-7.7,3.6-7.7,7.8c0,4.3,3.5,7.7,7.7,7.7
				C486.4,27.3,489.8,23.8,489.8,19.5z"/>
		</g>
	</g>
	<line class="st1" x1="246.7" y1="5.2" x2="246.7" y2="92.7"/>
	<g>
		<g>
			<path class="st0" d="M15.7,12.4H5.6V8h24.7v4.3H20.3v30.4h-4.6V12.4z"/>
			<path class="st0" d="M35.2,7.6h4.5V30L54,14.9h5.6L48.4,26.7l11.5,16h-5.2l-9.5-13.3l-5.5,5.7v7.6h-4.5V7.6z"/>
			<path class="st0" d="M66.3,36.3c2.2,0,3.5,1.4,3.5,3.4c0,2-1.3,3.4-3.5,3.4c-2.1,0-3.4-1.4-3.4-3.4
				C62.9,37.7,64.3,36.3,66.3,36.3z"/>
			<path class="st0" d="M86.1,38.2c0-5.6,4.8-9.2,9.4-12.4c4-2.8,7.7-5.3,7.7-8.7c0-3.2-2.4-5.6-6.4-5.6c-3.4,0-5.7,2.1-7.2,5.1
				l-4-2.1c2-4.2,5.9-7.1,11.2-7.1c6.8,0,11.1,4.3,11.1,9.6c0,5.4-4.7,8.7-9.2,11.8c-4.1,2.8-8,5.5-8,9.3v0h17.4v4.4H86.1V38.2z"/>
			<path class="st0" d="M111.7,38.3l3.9-3c1.8,2.4,4.2,3.7,7.2,3.7c4.1,0,6.9-2.5,6.9-6c0-3.7-3.3-6-7.6-6h-3.4v-4.3h3.4
				c4.3,0,6.8-2.3,6.8-5.6c0-3.3-2.6-5.5-6.6-5.5c-2.9,0-5.2,1.5-6.6,3.7l-3.8-2.3c2.1-3.1,5.8-5.4,10.5-5.4c6.8,0,11,3.8,11,9.5
				c0,3.4-1.7,6.1-4.6,7.6c3.3,1.6,5.4,4.4,5.4,8.3c0,5.9-4.3,10.2-11.5,10.2C118.4,43.2,114.5,41.6,111.7,38.3z"/>
			<path class="st0" d="M139.5,38.6h5l-4.1,9.7h-3.2L139.5,38.6z"/>
			<path class="st0" d="M162.3,30.9c-1,0.3-2.1,0.5-3.2,0.5c-6.4,0-11.5-5.1-11.5-11.9c0-6.9,5.4-12,12.3-12c7,0,12.3,5.3,12.3,11.9
				c0,3-1,6.1-2.6,8.4l-9.7,14.8h-5.5L162.3,30.9z M167.6,19.5c0-4.3-3.4-7.8-7.7-7.8c-4.2,0-7.7,3.6-7.7,7.8c0,4.3,3.5,7.7,7.7,7.7
				C164.2,27.3,167.6,23.8,167.6,19.5z"/>
			<path class="st0" d="M190.3,30.9c-1,0.3-2.1,0.5-3.2,0.5c-6.4,0-11.5-5.1-11.5-11.9c0-6.9,5.4-12,12.3-12c7,0,12.3,5.3,12.3,11.9
				c0,3-1,6.1-2.6,8.4l-9.7,14.8h-5.5L190.3,30.9z M195.7,19.5c0-4.3-3.4-7.8-7.7-7.8c-4.2,0-7.7,3.6-7.7,7.8c0,4.3,3.5,7.7,7.7,7.7
				C192.3,27.3,195.7,23.8,195.7,19.5z"/>
			<path class="st0" d="M218.4,30.9c-1,0.3-2.1,0.5-3.2,0.5c-6.4,0-11.5-5.1-11.5-11.9c0-6.9,5.4-12,12.3-12c7,0,12.3,5.3,12.3,11.9
				c0,3-1,6.1-2.6,8.4l-9.7,14.8h-5.5L218.4,30.9z M223.8,19.5c0-4.3-3.4-7.8-7.7-7.8c-4.2,0-7.7,3.6-7.7,7.8c0,4.3,3.5,7.7,7.7,7.7
				C220.3,27.3,223.8,23.8,223.8,19.5z"/>
		</g>
	</g>
	<g>
		<g>
			<path class="st2" d="M311.5,85.3c0-2.7,1.4-5,3.6-6.3c-1.6-1.2-2.7-3.1-2.7-5.4c0-4.1,3.1-7,7.5-7c4.2,0,7.4,2.9,7.4,7
				c0,2.3-1.1,4.2-2.8,5.4c2.1,1.3,3.5,3.6,3.5,6.3c0,4.5-3.2,7.8-8.3,7.8C314.7,93.1,311.5,89.8,311.5,85.3z M324.6,85.3
				c0-2.6-1.9-4.7-4.9-4.7c-3,0-5,2.1-5,4.7c0,2.6,2,4.7,4.9,4.7C322.6,90,324.6,87.9,324.6,85.3z M324,73.6c0-2.3-1.7-4.1-4.2-4.1
				c-2.5,0-4.3,1.8-4.3,4.1c0,2.3,1.7,4.1,4.2,4.1C322.2,77.6,324,75.8,324,73.6z"/>
			<path class="st2" d="M342.3,67h3.6l-12.2,25.7h-3.6L342.3,67z"/>
			<path class="st2" d="M351.9,92.7V70.2h-4.2V67h7.6v25.7H351.9z"/>
			<path class="st2" d="M359.9,89.4c0-4.2,3.6-6.8,7-9.2c3-2.1,5.7-4,5.7-6.5c0-2.4-1.8-4.1-4.7-4.1c-2.5,0-4.3,1.6-5.3,3.8l-3-1.6
				c1.5-3.1,4.4-5.3,8.3-5.3c5,0,8.2,3.2,8.2,7.2c0,4-3.5,6.5-6.8,8.7c-3,2.1-5.9,4.1-5.9,6.9v0h12.9v3.3h-16.4V89.4z"/>
			<path class="st2" d="M379.4,85.3c0-2.7,1.4-5,3.6-6.3c-1.6-1.2-2.7-3.1-2.7-5.4c0-4.1,3.1-7,7.5-7c4.2,0,7.4,2.9,7.4,7
				c0,2.3-1.1,4.2-2.8,5.4c2.1,1.3,3.5,3.6,3.5,6.3c0,4.5-3.2,7.8-8.3,7.8C382.6,93.1,379.4,89.8,379.4,85.3z M392.6,85.3
				c0-2.6-1.9-4.7-4.9-4.7c-3,0-5,2.1-5,4.7c0,2.6,2,4.7,4.9,4.7C390.6,90,392.6,87.9,392.6,85.3z M392,73.6c0-2.3-1.7-4.1-4.2-4.1
				c-2.5,0-4.3,1.8-4.3,4.1c0,2.3,1.7,4.1,4.2,4.1C390.2,77.6,392,75.8,392,73.6z"/>
			<path class="st2" d="M407.5,79.8c0-7.3,5.6-13.2,13.4-13.2c5.1,0,9.3,2.6,11.5,6.6l-3,1.8c-1.7-3.2-4.7-5.1-8.5-5.1
				c-5.8,0-9.9,4.5-9.9,9.9c0,5.5,4.1,9.9,9.9,9.9c5.3,0,8.5-3.2,9.2-7.8h-9.7v-3.2h13.2v1.2c0,7-4.8,13.1-12.8,13.1
				C413.2,93.1,407.5,87.1,407.5,79.8z"/>
			<path class="st2" d="M437.2,67h9c5,0,8.2,2.6,8.2,6.9c0,2.3-1.1,4.3-3.1,5.4c2.5,1,3.9,3.2,3.9,6.1c0,4.7-3.4,7.4-8.4,7.4h-9.6
				V67z M440.6,70.1v7.8h5.8c3.1,0,4.6-1.7,4.6-4c0-2.4-1.7-3.8-4.8-3.8H440.6z M440.6,81v8.5h6.2c3.1,0,5-1.8,5-4.3
				c0-2.6-1.6-4.3-5.1-4.3H440.6z"/>
		</g>
	</g>
	<g>
		<g>
			<path class="st2" d="M42.4,84.2c0-2.4,0.8-4.7,2-6.4L51.6,67h4.1l-5.9,8.6c0.7-0.2,1.5-0.4,2.4-0.4c4.7,0,8.5,3.8,8.5,8.9
				c0,5.1-4,8.9-9.1,8.9C46.2,93.1,42.4,89.1,42.4,84.2z M57.2,84.1c0-3.2-2.6-5.8-5.8-5.8c-3.2,0-5.7,2.6-5.7,5.8s2.5,5.9,5.7,5.9
				C54.6,90,57.2,87.3,57.2,84.1z"/>
			<path class="st2" d="M74.9,67h3.6L66.4,92.7h-3.6L74.9,67z"/>
			<path class="st2" d="M80.6,84.2c0-2.4,0.8-4.7,2-6.4L89.8,67h4.1L88,75.6c0.7-0.2,1.5-0.4,2.4-0.4c4.7,0,8.5,3.8,8.5,8.9
				c0,5.1-4,8.9-9.1,8.9C84.4,93.1,80.6,89.1,80.6,84.2z M95.5,84.1c0-3.2-2.6-5.8-5.8-5.8c-3.2,0-5.7,2.6-5.7,5.8s2.5,5.9,5.7,5.9
				C92.9,90,95.5,87.3,95.5,84.1z"/>
			<path class="st2" d="M113.4,86.8h-11.7v-3.1L113.3,67h3.5v16.7h3.8v3.1h-3.8v5.9h-3.4V86.8z M113.4,83.7V72.2l-8,11.5H113.4z"/>
			<path class="st2" d="M132.1,79.8c0-7.3,5.6-13.2,13.4-13.2c5.1,0,9.3,2.6,11.5,6.6l-3,1.8c-1.7-3.2-4.7-5.1-8.5-5.1
				c-5.8,0-9.9,4.5-9.9,9.9c0,5.5,4.1,9.9,9.9,9.9c5.3,0,8.5-3.2,9.2-7.8h-9.7v-3.2h13.2v1.2c0,7-4.8,13.1-12.8,13.1
				C137.8,93.1,132.1,87.1,132.1,79.8z"/>
			<path class="st2" d="M161.8,67h9c5,0,8.2,2.6,8.2,6.9c0,2.3-1.1,4.3-3.1,5.4c2.5,1,3.9,3.2,3.9,6.1c0,4.7-3.4,7.4-8.4,7.4h-9.6
				V67z M165.2,70.1v7.8h5.8c3.1,0,4.6-1.7,4.6-4c0-2.4-1.7-3.8-4.8-3.8H165.2z M165.2,81v8.5h6.2c3.1,0,5-1.8,5-4.3
				c0-2.6-1.6-4.3-5.1-4.3H165.2z"/>
		</g>
	</g>
</g>
</svg>
