<?xml version="1.0" encoding="utf-8"?>
<!-- Generator: Adobe Illustrator 24.0.2, SVG Export Plug-In . SVG Version: 6.00 Build 0)  -->
<svg version="1.1" id="Layer_1" xmlns="http://www.w3.org/2000/svg" xmlns:xlink="http://www.w3.org/1999/xlink" x="0px" y="0px"
	 viewBox="0 0 500 68.3" style="enable-background:new 0 0 500 68.3;" xml:space="preserve">
<style type="text/css">
	.st0{fill:#010101;}
</style>
<g>
	<path class="st0" d="M7.6,36.2V9H13v27.5c0,4.8,3.9,8.8,8.8,8.8c5,0,8.9-4,8.9-8.8V9H36v27.2c0,8.5-6.1,14.2-14.2,14.2
		C13.6,50.4,7.6,44.7,7.6,36.2z"/>
	<path class="st0" d="M48.6,44.7v20.2h-5.2V17.1h5.2v5.5c2.6-3.9,7.4-6.2,12-6.2c9.2,0,16.5,7.3,16.5,17c0,9.7-7.4,17-16.5,17
		C55.8,50.5,51.1,48.5,48.6,44.7z M71.9,33.4c0-6.7-5.2-12.1-11.7-12.1c-6.9,0-12,5.5-12,12.1c0,6.8,5.1,12.1,12,12.1
		C66.7,45.6,71.9,40.2,71.9,33.4z"/>
	<path class="st0" d="M96.1,17.1h5.7v-6.2l5.3-3.6v9.8h7.7v4.8h-7.7v15.2c0,6.6,1.2,7.7,7.7,7.7v5h-0.8c-9.6,0-12.1-2.8-12.1-12.6
		V21.9h-5.7V17.1z"/>
	<path class="st0" d="M119.9,33.5c0-9.6,7.5-17,16.9-17c9.4,0,17,7.4,17,17c0,9.5-7.5,17-17,17C127.4,50.5,119.9,43,119.9,33.5z
		 M148.5,33.5c0-6.7-5.1-12.1-11.7-12.1c-6.5,0-11.6,5.4-11.6,12.1c0,6.6,5.1,12.1,11.6,12.1C143.4,45.6,148.5,40.2,148.5,33.5z"/>
	<path class="st0" d="M185.3,14.1h-11.8V9h29.1v5.1h-11.8v35.7h-5.4V14.1z"/>
	<path class="st0" d="M208.8,8.5h5.3v26.4l16.8-17.7h6.6L224.3,31l13.5,18.8h-6.1l-11.2-15.6l-6.4,6.7v8.9h-5.3V8.5z"/>
	<path class="st0" d="M245.9,42.3c2.6,0,4.1,1.6,4.1,4c0,2.4-1.5,4-4.1,4c-2.5,0-4-1.6-4-4C241.9,43.9,243.5,42.3,245.9,42.3z"/>
	<path class="st0" d="M268.4,42.6l7-4.1c1.2,2.6,3.3,4.9,6.9,4.9c3.3,0,6.3-2.6,6.3-6.4c0-3.8-2.5-6.8-6.4-6.8
		c-3.2,0-5.1,1.7-6.5,4.1l-6.8-3.5L271.8,9h22.7v7.1h-16.7l-1.2,9.1c1.6-1,3.7-1.9,6.4-1.9c7.3,0,13.2,4.8,13.2,13.7
		c0,7.9-5.9,13.4-14,13.4C275.2,50.4,270.5,46.6,268.4,42.6z"/>
	<path class="st0" d="M300.6,37.1v-15c0-7.7,5.6-13.6,13.9-13.6c8.4,0,13.9,6.1,13.9,13.6v15c0,8-5.1,13.3-13.9,13.3
		C305.5,50.4,300.6,44.9,300.6,37.1z M320.7,36.8V22.3c0-3.9-2.2-6.4-6.2-6.4c-4.1,0-6.3,2.8-6.3,6.4v14.4c0,3.5,2.1,6.1,6.2,6.1
		S320.7,40.2,320.7,36.8z"/>
	<path class="st0" d="M334,37.1v-15c0-7.7,5.6-13.6,13.9-13.6c8.4,0,13.9,6.1,13.9,13.6v15c0,8-5.1,13.3-13.9,13.3
		C338.9,50.4,334,44.9,334,37.1z M354.1,36.8V22.3c0-3.9-2.2-6.4-6.2-6.4c-4.1,0-6.3,2.8-6.3,6.4v14.4c0,3.5,2.1,6.1,6.2,6.1
		S354.1,40.2,354.1,36.8z"/>
	<path class="st0" d="M367.4,37.1v-15c0-7.7,5.6-13.6,13.9-13.6c8.4,0,13.9,6.1,13.9,13.6v15c0,8-5.1,13.3-13.9,13.3
		C372.3,50.4,367.4,44.9,367.4,37.1z M387.5,36.8V22.3c0-3.9-2.2-6.4-6.2-6.4c-4.1,0-6.3,2.8-6.3,6.4v14.4c0,3.5,2.1,6.1,6.2,6.1
		S387.5,40.2,387.5,36.8z"/>
	<path class="st0" d="M413.6,33.5c0-9.5,7.5-17,16.9-17c9.4,0,16.9,7.5,16.9,17c0,9.4-7.5,17-16.9,17
		C421.1,50.5,413.6,42.9,413.6,33.5z M440,33.5c0-5.5-4.2-9.9-9.5-9.9c-5.4,0-9.5,4.5-9.5,9.9c0,5.4,4.1,9.9,9.5,9.9
		C435.9,43.4,440,38.9,440,33.5z"/>
	<path class="st0" d="M450.1,17.1h5.5v-0.1c0-9.4,3.7-13.1,13.7-13.1h0.7v7c-6,0-6.7,1.4-6.7,6.1h6.7v6.8h-6.7v25.9h-7.7V23.9h-5.5
		V17.1z"/>
	<path class="st0" d="M472.5,17.1h5.5v-0.1C478,7.7,481.8,4,491.7,4h0.7v7c-6,0-6.7,1.4-6.7,6.1h6.7v6.8h-6.7v25.9H478V23.9h-5.5
		V17.1z"/>
</g>
</svg>
