<?xml version="1.0" encoding="utf-8"?>
<!-- Generator: Adobe Illustrator 24.0.2, SVG Export Plug-In . SVG Version: 6.00 Build 0)  -->
<svg version="1.1" id="Layer_1" xmlns="http://www.w3.org/2000/svg" xmlns:xlink="http://www.w3.org/1999/xlink" x="0px" y="0px"
	 viewBox="0 0 500 124.6" style="enable-background:new 0 0 500 124.6;" xml:space="preserve">
<style type="text/css">
	.st0{fill:#FFFFFF;}
	.st1{fill:#010101;}
</style>
<g>
	<path class="st0" d="M459.8,121H40.2c-19.6,0-35.5-15.9-35.5-35.5V40.1c0-19.6,15.9-35.5,35.5-35.5h419.7
		c19.6,0,35.5,15.9,35.5,35.5v45.4C495.4,105.1,479.4,121,459.8,121z"/>
	<g>
		<path class="st1" d="M37,36.2h10.5v46.5h20.7v10.1H37V36.2z"/>
		<path class="st1" d="M71.4,70.2c0-13.2,10.3-23.7,23.6-23.7c13.5,0,23.3,9.9,23.3,23.3v4H81.3c1.4,6.4,6.5,10.7,13.9,10.7
			c5.8,0,10.4-3.2,12.5-8l8.6,5c-4,7.3-11.1,12.2-21.1,12.2C81,93.7,71.4,83.3,71.4,70.2z M81.9,65h25.7c-1.5-6-6.2-9.3-12.7-9.3
			C88.6,55.7,83.7,59.5,81.9,65z"/>
		<path class="st1" d="M121.4,70.1c0-15,11-23.6,22.5-23.6c6,0,11.3,2.5,14.6,6.4v-5.4h10.5v45.3h-10.5v-5.9
			c-3.3,4.2-8.8,6.8-14.7,6.8C132.8,93.7,121.4,84.9,121.4,70.1z M159,70c0-7.7-5.8-13.9-13.6-13.9c-7.7,0-13.7,6.1-13.7,13.9
			c0,7.9,6,14.1,13.7,14.1C153.2,84.1,159,77.8,159,70z"/>
		<path class="st1" d="M175.2,47.4h10.4v6.7c2.1-4.5,5.9-6.7,11.6-6.7c3.3,0,6,0.8,8,1.9l-4,9.9c-1.5-1-3.3-1.8-6.3-1.8
			c-6,0-9.3,3.3-9.3,11.1v24.2h-10.5V47.4z"/>
		<path class="st1" d="M208.6,47.4H219V53c3-4,7.7-6.5,13.6-6.5c11.2,0,18,7.3,18,19.4v26.9h-10.6V66.9c0-7-3.4-11.4-10.2-11.4
			c-6,0-10.6,4.4-10.6,12.3v24.9h-10.5V47.4z"/>
		<path class="st1" d="M275.8,36.2h10.5L303.4,60l17.8-23.8h10v56.6h-10.5V53.1l-17.4,23.4l-17-23v39.3h-10.5V36.2z"/>
		<path class="st1" d="M335.9,70.1c0-13.2,10.4-23.6,23.5-23.6c13,0,23.5,10.5,23.5,23.6c0,13.1-10.5,23.6-23.5,23.6
			C346.3,93.7,335.9,83.2,335.9,70.1z M372.5,70.1c0-7.6-5.8-13.8-13.2-13.8c-7.5,0-13.2,6.2-13.2,13.8c0,7.5,5.7,13.7,13.2,13.7
			C366.7,83.8,372.5,77.6,372.5,70.1z"/>
		<path class="st1" d="M387.4,47.4h10.4v6.7c2.1-4.5,5.9-6.7,11.6-6.7c3.3,0,6,0.8,8,1.9l-4,9.9c-1.5-1-3.3-1.8-6.3-1.8
			c-6,0-9.3,3.3-9.3,11.1v24.2h-10.5V47.4z"/>
		<path class="st1" d="M417.8,70.2c0-13.2,10.3-23.7,23.5-23.7c13.5,0,23.3,9.9,23.3,23.3v4h-36.9c1.4,6.4,6.5,10.7,13.9,10.7
			c5.8,0,10.4-3.2,12.5-8l8.6,5c-4,7.3-11.1,12.2-21.1,12.2C427.5,93.7,417.8,83.3,417.8,70.2z M428.3,65H454
			c-1.5-6-6.2-9.3-12.7-9.3C435.1,55.7,430.2,59.5,428.3,65z"/>
	</g>
</g>
</svg>
