<?xml version="1.0" encoding="utf-8"?>
<!-- Generator: Adobe Illustrator 24.0.2, SVG Export Plug-In . SVG Version: 6.00 Build 0)  -->
<svg version="1.1" id="Layer_1" xmlns="http://www.w3.org/2000/svg" xmlns:xlink="http://www.w3.org/1999/xlink" x="0px" y="0px"
	 viewBox="0 0 500 99.5" style="enable-background:new 0 0 500 99.5;" xml:space="preserve">
<style type="text/css">
	.st0{fill:#010101;}
</style>
<g>
	<path class="st0" d="M8,37.9C8,19.1,22.2,4,41.8,4c13.7,0,24.4,7,30,16.9l-10.9,6.5C56.9,20,50.5,16,41.8,16
		c-12.3,0-21.6,9.9-21.6,22c0,12.2,9.2,22,22.1,22c9.9,0,16.7-5.6,19.1-14.3H40.3V33.9h34.3v4.9c0,17.8-12.6,33.1-32.3,33.1
		C21.7,71.9,8,56.2,8,37.9z"/>
	<path class="st0" d="M79.3,44.5C79.3,27,92.1,17,105.5,17c7,0,13.2,2.9,17,7.4v-6.3h12.2v52.9h-12.2v-6.9c-3.9,4.9-10.2,8-17.2,8
		C92.6,72,79.3,61.8,79.3,44.5z M123.1,44.4c0-9-6.8-16.3-15.8-16.3s-16,7.1-16,16.3c0,9.2,7,16.5,16,16.5S123.1,53.5,123.1,44.4z"
		/>
	<path class="st0" d="M141.7,4H154v66.9h-12.3V4z"/>
	<path class="st0" d="M159.3,44.5c0-17.5,12.8-27.6,26.2-27.6c7,0,13.2,2.9,17,7.4v-6.3h12.2v52.9h-12.2v-6.9
		c-3.9,4.9-10.2,8-17.2,8C172.6,72,159.3,61.8,159.3,44.5z M203.2,44.4c0-9-6.8-16.3-15.8-16.3s-16,7.1-16,16.3
		c0,9.2,7,16.5,16,16.5S203.2,53.5,203.2,44.4z"/>
	<path class="st0" d="M237.7,44l-19.2-26h14.9l12,16.8l11.9-16.8h14.5l-19,26.1l20.3,26.8h-14.9l-12.9-17.6l-12.6,17.6h-14.9
		L237.7,44z"/>
	<path class="st0" d="M295.1,68.3l-21.7-50.3h13l14.7,35.6l13.9-35.6h12.8l-31.6,77.3H284L295.1,68.3z"/>
	<path class="st0" d="M354.7,4.9h12.2l20,27.8l20.8-27.8h11.7v66h-12.3V24.7L386.8,52L367,25.1v45.8h-12.3V4.9z"/>
	<path class="st0" d="M423.3,62.6l10.7-8c2.8,4.2,6.3,6,10.4,6c5.6,0,9.8-3.3,9.8-8.8s-4.6-9.1-11.3-9.1h-6.8V31.4h6.8
		c7.1,0,10.5-4.1,10.5-8.8c0-4.8-3.7-8-9.3-8c-5.2,0-8,2.4-10,6.3l-10.5-5.4C427.4,8.4,435.2,4,443.9,4c12.8,0,21.4,7.1,21.4,18.5
		c0,6-2.8,10.9-7.5,14.2c5.3,3.2,8.7,8.2,8.7,15.1c0,11.4-7.8,20-22,20C436.1,71.9,428.9,69.2,423.3,62.6z"/>
	<path class="st0" d="M479.7,70.9V16.4h-8V4.9H492v66H479.7z"/>
</g>
</svg>
